PathFileType  4	(X/Y/Z) C:\Users\antoi\Documents\MyRepositories\mobilecap\ResultsAnalysis
DataRate	CameraRate	NumFrames	NumMarkers	Units	OrigDataRate	OrigDataStartFrame	OrigNumFrames
100.0	100.0	4	51	mm	100.0	182	291
Frame#	Time	r_knee			r_shank_antsup			r_ankle			r_calc			r_5meta			r_toe			L_knee			L_shank_antsup			L_ankle			L_calc			L_5meta			L_toe			r_sh2			r_sh3			r_sh4			L_sh2			L_sh3			r_thigh1			r_thigh2			r_thigh3			r_thigh4			r_thigh5			L_thigh1			L_thigh2			L_thigh3			L_thigh4			r.ASIS			r.PSIS			L.ASIS			L.PSIS			C7			R_Shoulder			L_Shoulder			R_Sternum			L_Sternum			R_humerus			R_elbow_med			R_elbow_lat			R_forearm			R_wrist_radius			R_wrist_ulna			L_humerus			L_elbow_med			L_elbow_lat			L_forearm			L_wrist_radius			L_wrist_ulna			R_HJC			L_HJC			R_HJC_reg			L_HJC_reg			
		X1	Y1	Z1	X2	Y2	Z2	X3	Y3	Z3	X4	Y4	Z4	X5	Y5	Z5	X6	Y6	Z6	X7	Y7	Z7	X8	Y8	Z8	X9	Y9	Z9	X10	Y10	Z10	X11	Y11	Z11	X12	Y12	Z12	X13	Y13	Z13	X14	Y14	Z14	X15	Y15	Z15	X16	Y16	Z16	X17	Y17	Z17	X18	Y18	Z18	X19	Y19	Z19	X20	Y20	Z20	X21	Y21	Z21	X22	Y22	Z22	X23	Y23	Z23	X24	Y24	Z24	X25	Y25	Z25	X26	Y26	Z26	X27	Y27	Z27	X28	Y28	Z28	X29	Y29	Z29	X30	Y30	Z30	X31	Y31	Z31	X32	Y32	Z32	X33	Y33	Z33	X34	Y34	Z34	X35	Y35	Z35	X36	Y36	Z36	X37	Y37	Z37	X38	Y38	Z38	X39	Y39	Z39	X40	Y40	Z40	X41	Y41	Z41	X42	Y42	Z42	X43	Y43	Z43	X44	Y44	Z44	X45	Y45	Z45	X46	Y46	Z46	X47	Y47	Z47	X48	Y48	Z48	X49	Y49	Z49	X50	Y50	Z50	X51	Y51	Z51	

182	1.81000000	-23.41191	417.13739	-327.98043	-48.58267	389.25171	-301.48809	-222.46379	98.44811	-379.64097	-293.80272	63.12847	-436.76637	-124.93867	39.66557	-326.22816	-69.57417	58.27397	-371.33607	-14.56542	429.96029	-759.70784	0.18892	355.70037	-777.63980	-192.00818	100.10186	-752.68892	-266.23671	63.84747	-710.97424	-89.00930	40.76112	-788.57497	-40.39702	57.16079	-734.58312	-102.63993	285.51051	-309.53467	18.90326	363.52633	-327.41774	-34.66787	264.49056	-354.03671	-75.30121	403.49387	-778.75252	-131.27026	291.95289	-777.08250	-254.65633	554.41949	-438.35954	-147.34427	547.08791	-404.77633	-145.65880	525.90188	-341.76398	-285.39170	520.35115	-336.86411	-178.70733	490.02124	-314.34403	-290.53589	536.97945	-725.01719	-158.22776	496.30417	-759.54473	-325.96779	431.17542	-738.98430	-194.36163	390.30405	-733.24069	-281.99197	579.69061	-420.43794	-451.29898	630.56598	-509.78495	-272.43901	542.43712	-648.04040	-446.30995	626.68630	-604.01676	-87.27101	977.50364	-531.51197	-34.11289	900.61966	-376.29786	-19.03225	891.36935	-678.81315	-43.13188	831.50402	-511.56458	-38.58903	828.20975	-543.65074	-161.91749	729.79389	-251.12401	-269.74077	686.62544	-257.23105	-231.82050	681.02612	-203.59119	-227.04696	536.17915	-179.42954	-234.50592	429.50032	-186.40106	-253.94365	442.82991	-148.11424	-156.03233	732.79710	-810.90375	-265.55626	683.40861	-796.30018	-238.92731	685.29796	-850.08193	-267.37715	552.97379	-907.05896	-291.24376	447.65462	-924.81290	-329.05816	465.57283	-929.39324	-365.02044	506.78150	-447.51296	-366.02331	491.31550	-637.55480	-357.51194	504.22313	-452.49161	-349.46032	497.96520	-604.49782	
183	1.82000000	-23.73275	416.91833	-328.85487	-48.69586	389.28681	-302.01880	-222.44238	98.29532	-379.86886	-293.83505	62.84869	-436.81839	-125.14572	39.42295	-326.24448	-69.85739	58.01945	-371.48191	-15.47868	430.00415	-758.00770	-0.89655	356.20045	-777.12174	-192.31713	100.16256	-752.95755	-266.42980	63.52305	-711.00330	-89.06975	40.84204	-788.74678	-40.56166	57.34649	-734.67744	-102.27529	285.07727	-310.17596	18.60544	363.47443	-328.49583	-34.71995	264.58341	-354.80584	-76.64408	403.48170	-778.07151	-133.90188	290.14932	-773.98050	-256.16177	552.13376	-438.44547	-148.68227	545.55990	-405.43057	-146.83401	524.63973	-342.27417	-286.24997	518.87289	-336.81530	-179.75360	488.50380	-315.16041	-291.12980	536.60422	-724.13004	-159.89921	495.77642	-759.02300	-327.72513	429.69055	-738.83477	-195.43575	389.34326	-732.50254	-281.66432	576.76823	-419.84174	-451.20539	628.45490	-509.59154	-273.00618	539.44857	-648.22179	-446.47829	624.43680	-603.50732	-77.81554	967.96248	-531.56124	-24.09408	889.73039	-377.11637	-10.62237	879.25850	-679.18200	-35.69184	821.58040	-512.20015	-31.55389	817.79395	-544.43762	-157.24241	722.03322	-252.41479	-266.65355	684.43751	-258.42348	-229.06049	675.68677	-205.83296	-236.37802	530.96205	-180.28416	-252.64429	425.56038	-186.19503	-271.06694	440.31953	-148.43171	-155.02017	725.41258	-809.43024	-266.03213	682.18178	-793.72313	-239.61752	682.06892	-847.85694	-278.57886	553.28483	-905.45275	-312.12583	450.57309	-924.09498	-347.99405	472.37985	-929.20950	-365.26550	504.25224	-447.19962	-366.75114	488.72973	-637.23318	-357.84748	501.60055	-451.76608	-350.17167	495.07521	-604.27039	
184	1.83000000	-24.08310	416.85234	-329.96984	-48.93754	389.54871	-302.88840	-222.42853	98.24024	-380.00765	-294.02094	62.87628	-436.76461	-125.49315	39.03031	-326.32654	-70.29356	57.61538	-371.65340	-16.45223	429.67574	-755.21298	-2.00922	356.75406	-775.93850	-192.60783	100.13138	-752.79275	-266.61952	63.14498	-710.90154	-89.16993	40.92704	-788.80151	-40.76555	57.52794	-734.71603	-102.38651	285.18319	-310.73431	18.27451	363.63312	-329.52364	-34.92348	264.70636	-355.56653	-78.00097	403.74521	-776.90544	-135.76766	289.01241	-771.29174	-257.33638	550.61542	-438.12170	-149.67427	544.59555	-405.39907	-147.65544	523.56846	-342.42797	-286.88772	517.56892	-336.45043	-180.44119	487.05086	-315.53795	-291.35810	537.47778	-723.80688	-161.57085	495.13433	-758.32247	-330.20096	428.50601	-738.23294	-197.10286	388.17000	-731.04185	-281.68852	573.37719	-419.42626	-451.09743	627.22788	-508.61059	-274.26297	536.72511	-648.02703	-446.75531	623.36947	-602.15714	-68.73733	959.36512	-531.80304	-14.47199	880.01883	-377.94476	-2.79551	867.89395	-679.50528	-27.57069	813.24571	-513.36785	-24.55428	808.58841	-545.36311	-153.57155	715.70244	-254.07454	-264.24648	683.59160	-260.41369	-227.51227	672.07181	-208.42366	-245.51726	528.34058	-182.18626	-270.18777	424.61458	-187.57316	-287.35003	440.76073	-149.83748	-154.46650	719.24871	-808.13589	-267.02287	681.91824	-790.96531	-240.87476	679.78241	-845.15551	-289.40451	554.93266	-902.85064	-331.60724	455.68010	-922.48054	-365.35078	480.74248	-927.96449	-366.18922	501.87102	-446.73066	-368.54633	486.96792	-636.80325	-358.87065	499.28002	-451.27778	-351.78984	492.98805	-603.86558	
185	1.84000000	-24.40151	417.05768	-331.06676	-49.25970	389.81822	-304.10812	-222.48701	98.22074	-380.06085	-294.24897	62.85150	-436.63841	-125.53425	39.01000	-326.27202	-70.60765	57.40426	-371.73923	-18.41259	430.13785	-754.52232	-3.17328	357.48720	-774.15646	-192.91549	100.04530	-752.39549	-266.66397	62.82996	-710.69691	-89.27031	41.04784	-788.84248	-40.96430	57.70103	-734.73654	-102.69789	285.43969	-311.51958	18.01782	363.96948	-330.38536	-35.22870	264.73797	-356.50761	-79.39877	404.21397	-774.82281	-135.76346	290.18943	-771.08874	-258.25775	549.62294	-437.58435	-150.44589	544.25735	-405.17171	-148.09890	522.60846	-342.59071	-287.41382	516.41099	-335.92081	-180.68950	485.91701	-315.24719	-292.29397	538.11510	-723.87567	-162.99603	494.66938	-757.27037	-332.39176	427.93292	-737.55072	-198.80654	387.39458	-729.24959	-282.35698	568.77746	-419.16210	-451.22750	626.66872	-506.87111	-276.50463	533.66039	-647.81469	-447.25623	623.26546	-600.48520	-60.16810	951.65686	-532.04899	-5.19417	871.20313	-378.79255	4.25469	857.48535	-679.85970	-21.11511	805.15449	-514.30936	-18.07911	800.27845	-546.22368	-150.81566	710.47062	-256.14891	-262.34312	683.80359	-262.99104	-226.92768	670.18108	-210.93136	-254.34338	527.86134	-184.90757	-286.94960	426.08240	-190.25918	-302.88099	443.49396	-152.42463	-154.30414	714.02002	-806.58296	-268.34417	682.60465	-788.33006	-242.38205	678.58159	-842.30522	-299.57453	557.91388	-899.82322	-349.24041	462.35505	-920.14228	-380.92369	490.18020	-925.71135	-368.32014	499.14498	-446.39305	-371.83206	485.68789	-636.55567	-361.17907	496.68926	-451.17801	-354.70967	491.14517	-603.66944	
